<?xml version="1.0" standalone="no"?>
<!DOCTYPE svg PUBLIC "-//W3C//DTD SVG 1.1//EN" "http://www.w3.org/Graphics/SVG/1.1/DTD/svg11.dtd" >
<svg xmlns="http://www.w3.org/2000/svg">
<metadata>
<iconset grid="16"></iconset>
</metadata>
<defs>
<font id="jrIcons" horiz-adv-x="512" >
<font-face units-per-em="512" ascent="480" descent="-32" />
<missing-glyph horiz-adv-x="512" />
<glyph unicode="&#xe000;" d="M 404.553,480.00L 107.447,480.00 C 68.315,480.00, 36.571,448.366, 36.571,409.381l0.00-370.761 C 36.571-0.402, 68.315-32.00, 107.447-32.00l 297.106,0.00
	C 443.685-32.00, 475.429-0.402, 475.429,38.619L 475.429,409.381 C 475.429,448.366, 443.685,480.00, 404.553,480.00z M 237.714,114.286l-109.714,0.00 C 117.906,114.286, 109.714,122.478, 109.714,132.571S 117.906,150.857, 128.00,150.857l 109.714,0.00
	C 247.808,150.857, 256.00,142.665, 256.00,132.571S 247.808,114.286, 237.714,114.286z M 384.00,187.429l-256.00,0.00 C 117.906,187.429, 109.714,195.621, 109.714,205.714C 109.714,215.808, 117.906,224.00, 128.00,224.00l 256.00,0.00 C 394.094,224.00, 402.286,215.808, 402.286,205.714
	C 402.286,195.621, 394.094,187.429, 384.00,187.429z M 384.00,260.571l-256.00,0.00 C 117.906,260.571, 109.714,268.763, 109.714,278.857C 109.714,288.951, 117.906,297.143, 128.00,297.143l 256.00,0.00 C 394.094,297.143, 402.286,288.951, 402.286,278.857C 402.286,268.763, 394.094,260.571, 384.00,260.571
	z M 384.00,333.714l-256.00,0.00 C 117.906,333.714, 109.714,341.906, 109.714,352.00C 109.714,362.094, 117.906,370.286, 128.00,370.286l 256.00,0.00 C 394.094,370.286, 402.286,362.094, 402.286,352.00C 402.286,341.906, 394.094,333.714, 384.00,333.714z"  />
<glyph unicode="&#xe001;" d="M 256.00,150.857l 73.143,0.00 L 329.143,224.00 l 109.714,0.00 L 438.857,414.427 C 438.857,450.633, 404.846,480.00, 365.714,480.00L 73.143,480.00 C 34.011,480.00,0.00,450.633,0.00,414.427l0.00-380.855
		C0.00-2.633, 34.011-32.00, 73.143-32.00l 256.00,0.00 l0.00,36.571 L 256.00,4.571 L 256.00,150.857 z M 88.832,370.359l 261.23,0.00 C 358.729,370.359, 365.714,362.277, 365.714,352.256c0.00-10.021-6.985-18.139-15.689-18.139L 88.832,334.117
		C 80.165,334.153, 73.143,342.235, 73.143,352.256C 73.143,362.277, 80.165,370.359, 88.832,370.359z M 201.143,260.754l-109.714,0.00 C 81.335,260.754, 73.143,268.873, 73.143,278.857s 8.192,18.103, 18.286,18.103l 109.714,0.00
		C 211.237,296.96, 219.429,288.841, 219.429,278.857S 211.237,260.754, 201.143,260.754zM 512.00,114.286L 438.857,114.286L 438.857,187.429L 365.714,187.429L 365.714,114.286L 292.571,114.286L 292.571,41.143L 365.714,41.143L 365.714-32.00L 438.857-32.00L 438.857,41.143L 512.00,41.143
		z"  />
<glyph unicode="&#xe002;" d="M 402.286,150.857l-36.571,0.00 l0.00-36.571 L 329.143,114.286 l0.00-36.571 L 292.571,77.714 l0.00-36.571 L 256.00,41.143 l0.00-36.571 L 146.286,4.571 l0.00,109.714 l 36.571,0.00 L 182.857,150.857 l 36.571,0.00 L 219.429,187.429 l 36.571,0.00 L 256.00,224.00 l 36.571,0.00 L 292.571,260.571 l 36.571,0.00 L 329.143,297.143 l 36.571,0.00 L 365.714,333.714 l 36.571,0.00 L 402.286,370.286 l 36.571,0.00 L 438.857,414.427 C 438.857,450.633, 404.846,480.00, 365.714,480.00L 73.143,480.00 C 34.011,480.00,0.00,450.633,0.00,414.427l0.00-380.855
		C0.00-2.633, 34.011-32.00, 73.143-32.00l 292.571,0.00 c 39.131,0.00, 73.143,29.367, 73.143,65.573L 438.857,187.429 l-36.571,0.00 L 402.286,150.857 z M 88.832,370.359l 224.695,0.00 C 322.158,370.359, 329.143,362.277, 329.143,352.256
		c0.00-10.021-6.985-18.139-15.653-18.139L 88.832,334.117 C 80.165,334.153, 73.143,342.235, 73.143,352.256C 73.143,362.277, 80.165,370.359, 88.832,370.359z M 73.143,278.857
		c0.00,9.984, 8.192,18.103, 18.286,18.103l 109.714,0.00 C 211.237,296.96, 219.429,288.841, 219.429,278.857S 211.237,260.754, 201.143,260.754l-109.714,0.00 C 81.335,260.754, 73.143,268.873, 73.143,278.857zM 512.00,370.286c-0.512,1.829-66.853-0.11-66.853-0.11L 438.857,363.849L 438.857,333.714 l-30.135,0.00 L 402.286,327.278L 402.286,297.143 l-30.135,0.00 L 365.714,290.706L 365.714,260.571 L 335.579,260.571 L 329.143,254.135L 329.143,224.00 L 299.008,224.00 L 292.571,217.563
		L 292.571,187.429 L 262.437,187.429 L 256.00,180.992L 256.00,150.857 L 225.865,150.857 L 219.429,144.421L 219.429,114.286 l 36.571,0.00 l0.00-36.571 l 30.135,0.00 L 292.571,84.114L 292.571,114.286 l 30.135,0.00 L 329.143,120.686L 329.143,150.857 l 30.135,0.00 L 365.714,157.257L 365.714,187.429 l 30.135,0.00 L 402.286,193.829L 402.286,224.00 l 30.135,0.00 L 438.857,230.40L 438.857,260.571
		l 30.135,0.00 L 475.429,266.971L 475.429,297.143 l 30.135,0.00 l 6.363,6.29C 511.927,303.433, 512.987,366.738, 512.00,370.286zM 219.429,50.798L 219.429,77.714L 192.512,77.714L 179.566,37.851 	z"  />
<glyph unicode="&#xe003;" d="M 492.434,459.337c-44.544,44.544-88.43,0.00-88.43,0.00l-22.345-22.382L 344.613,474.002
		c-8.046,8.009-21.029,8.009-29.038,0.00l-99.84-99.84c-8.009-8.009-8.009-21.029,0.00-29.001c 4.023-3.986, 9.253-6.034, 14.519-6.034
		s 10.496,2.011, 14.519,6.034l 85.321,85.321L 352.622,407.954L 329.947,385.28l 88.393-88.393l 74.057,74.057C 492.434,370.944, 536.978,414.793, 492.434,459.337zM 402.395-32.549L 365.824-32.549L 365.824,4.023L 329.253,4.023L 329.253-32.549L 292.681-32.549L 292.681,4.023L 256.11,4.023L 256.11-32.549L 219.538-32.549L 219.538,4.023L 182.967,4.023L 182.967-32.549L 146.395-32.549L 146.395,4.023L 114.213,4.023L 130.926,9.472L 130.962,9.472L 130.999,9.509L 130.962,9.509L 389.339,267.849L 300.946,356.279L 42.606,97.902L 42.569,97.902L 42.569,97.865L 42.533,97.829L 42.569,97.829L0.00-33.061L 109.824,2.597L 109.824-32.549L 73.253-32.549L 73.253-9.289L0.00-33.061L 14.921-33.024L 438.967-32.549L 402.395,4.023 	z"  />
<glyph unicode="&#xe004;" d="M 98.011,29.44c0.00-33.902, 27.502-61.44, 61.44-61.44l 204.80,0.00 c 33.938,0.00, 61.477,27.538, 61.477,61.44l 40.923,327.68L 57.051,357.12 L 98.011,29.44z M 323.291,295.68l 40.96,0.00
	l0.00-266.24 L 323.291,29.44 L 323.291,295.68 z M 241.371,295.68l 40.96,0.00 l0.00-266.24 L 241.371,29.44 L 241.371,295.68 z M 159.451,295.68l 40.96,0.00 l0.00-266.24 L 159.451,29.44 L 159.451,295.68 z M 456.411,439.04L 323.291,439.04 c0.00,0.00-9.179,40.96-20.48,40.96L 220.891,480.00
	C 209.554,480.00, 200.411,439.04, 200.411,439.04L 67.291,439.04 C 50.322,439.04, 36.571,425.289, 36.571,408.32S 36.571,377.60, 36.571,377.60l 450.56,0.00 c0.00,0.00,0.00,13.751,0.00,30.72S 473.344,439.04, 456.411,439.04z"  />
<glyph unicode="&#xe005;" d="M 508.672,41.947l-83.529,83.054c-4.791,4.754-13.129,4.059-18.761-1.463l-0.951-0.878L 350.025,177.737
		c 8.265,11.666, 14.738,24.576, 20.297,37.961c 1.024,2.45, 2.121,4.864, 3.035,7.387c 1.792,4.827, 3.255,9.728, 4.608,14.775
		c 0.987,3.584, 1.902,7.205, 2.633,10.862c 0.951,4.608, 1.938,9.216, 2.523,13.97c 0.768,5.413, 1.061,10.935, 1.353,16.421
		c 0.146,3.035, 0.731,5.925, 0.731,8.96c0.00,39.717-12.142,76.617-32.878,107.191C 317.733,446.391, 259.035,480.00, 192.512,480.00C 86.199,480.00,0.00,394.203,0.00,288.329
		c0.00-26.551, 5.449-51.822, 15.25-74.825c 29.221-68.827, 97.646-117.138, 177.408-117.138c 5.486,0.00, 10.752,0.805, 16.128,1.28
		c 2.487,0.183, 5.01,0.256, 7.497,0.622c 5.851,0.731, 11.557,1.792, 17.225,2.999c 2.267,0.512, 4.535,1.024, 6.766,1.646
		c 23.113,5.851, 44.763,15.433, 63.671,28.782l 55.406-55.113l-3.328-3.291c-5.559-5.522-6.29-13.897-1.499-18.615l 83.566-83.054
		c 4.791-4.754, 13.129-4.059, 18.761,1.463l 50.432,50.213C 512.768,28.891, 513.426,37.23, 508.672,41.947z M 192.475,160.622
		c-52.955,0.00-98.487,32.146-118.053,77.824C 67.913,253.696, 64.329,270.482, 64.329,288.073c0.00,70.437, 57.563,127.744, 128.329,127.744
		c 52.955,0.00, 98.523-32.11, 118.089-77.824C 317.221,322.743, 320.768,305.957, 320.768,288.366C 320.768,217.929, 263.241,160.622, 192.475,160.622zM 235.483,366.811c-35.84,18.651-84.626,12.69-89.271,3.73s 39.095-14.811, 73.143-36.571c 38.107-24.393, 73.106-46.665, 73.143-36.571
		C 292.535,303.47, 271.323,348.16, 235.483,366.811z"  />
<glyph unicode="&#xe006;" d="M 475.538,223.963C 475.538,253.696, 475.429,259.621, 475.429,260.571c-0.366,0.878-5.339,0.00-36.571,0.00s-49.737,44.80-27.685,66.889
	C 413.623,329.911, 415.671,331.959, 417.426,333.714L 438.857,333.714 L 438.857,370.286 L 438.857,406.857 l-36.571,0.00 L 365.714,406.857 l0.00-21.358 c-1.792-1.829-3.767-3.84-6.254-6.327C 337.408,357.083, 292.571,375.625, 292.571,406.857s0.00,35.621,0.00,36.571
	C 291.621,443.429, 285.733,443.429, 256.037,443.429C 226.304,443.429, 220.379,443.429, 219.429,443.429c0.00-0.951,0.00-5.339,0.00-36.571S 174.629,357.12, 152.539,379.173C 150.126,381.659, 148.041,383.671, 146.286,385.463L 146.286,406.857 L 109.714,406.857 L 73.143,406.857 l0.00-36.571
	l0.00-36.571 l 21.431,0.00 C 96.329,331.959, 98.377,329.911, 100.827,327.461C 122.917,305.371, 104.375,260.571, 73.143,260.571S 37.522,260.571, 36.571,260.571c0.00-0.951,0.00-6.875,0.00-36.608C 36.571,194.267, 36.571,188.379, 36.571,187.429
	c 0.951,0.00, 5.339,0.00, 36.571,0.00s 49.774-44.837, 27.685-66.853C 98.377,118.089, 96.329,116.041, 94.537,114.286L 73.143,114.286 l0.00-36.571 l0.00-36.571 l 36.571,0.00 l 36.571,0.00 l0.00,21.467
	c 1.755,1.755, 3.803,3.803, 6.254,6.254C 174.629,90.953, 219.429,72.375, 219.429,41.143s0.00-35.621,0.00-36.571c-0.951,0.00, 6.875-0.073, 36.608-0.073
	C 285.733,4.498, 293.522,4.571, 292.571,4.571c0.00,0.951,0.00,5.339,0.00,36.571s 44.837,49.737, 66.889,27.721C 361.911,66.377, 363.922,64.475, 365.714,62.72L 365.714,41.143 l 36.571,0.00 l 36.571,0.00 l0.00,36.571 L 438.857,114.286 l-21.394,0.00
	c-1.755,1.755-3.803,3.803-6.29,6.29C 389.12,142.665, 407.625,187.429, 438.857,187.429s 35.621,3.474, 36.571,0.00C 475.392,188.379, 475.538,194.267, 475.538,223.963z M 292.571,187.429L 219.429,187.429 L 219.429,260.571
	l 73.143,0.00 L 292.571,187.429 z"  />
<glyph unicode="&#xe007;" d="M 183.186,59.831A36.571,36.827 180.00 1 1 256.329,59.83100000000002A36.571,36.827 180.00 1 1 183.186,59.83100000000002zM 329.362,59.831A36.535,36.827 180.00 1 1 402.432,59.83100000000002A36.535,36.827 180.00 1 1 329.362,59.83100000000002zM 420.206,167.936L 165.12,167.936 L 77.275,413.221C 74.752,420.352, 67.657,425.143, 59.648,425.143L 18.615,425.143 C 8.338,425.143,0.00,417.317,0.00,407.625
		c0.00-9.655, 8.338-17.518, 18.615-17.518l 27.648,0.00 l 87.808-245.285C 136.631,137.728, 143.726,132.937, 151.698,132.937l 268.507,0.00 c 10.24,0.00, 18.615,7.79, 18.615,17.518
		C 438.821,160.11, 430.482,167.936, 420.206,167.936zM 494.482,363.52L 160.695,389.01C 149.906,389.851, 143.909,383.159, 147.383,374.162l 58.331-151.845c 3.474-8.997, 15.177-16.347, 25.966-16.347l 243.675,0.00
		c 10.825,0.00, 20.626,7.717, 21.797,17.152l 14.885,121.746C 513.17,354.267, 505.307,362.679, 494.482,363.52z"  />
<glyph unicode="&#xe008;" d="M 416.987,443.429L 94.683,443.429 C 42.386,443.429,0.00,401.481,0.00,349.733L0.00,169.874 c0.00-43.447, 29.915-79.909, 70.437-90.478c-6.693-19.493-21.687-40.741-50.615-62.318
	c-19.346-14.482, 71.68-31.195, 162.889,60.928l 219.429,0.00 c 52.297,0.00, 109.495,40.119, 109.495,91.867L 511.634,349.733 C 511.634,401.481, 469.285,443.429, 416.987,443.429z M 146.139,224.256
	c-20.187,0.00-36.571,16.384-36.571,36.571s 16.384,36.571, 36.571,36.571s 36.571-16.384, 36.571-36.571S 166.327,224.256, 146.139,224.256z M 255.854,224.256c-20.187,0.00-36.571,16.384-36.571,36.571s 16.384,36.571, 36.571,36.571
	c 20.224,0.00, 36.571-16.384, 36.571-36.571S 276.078,224.256, 255.854,224.256z M 365.568,224.256c-20.224,0.00-36.571,16.384-36.571,36.571s 16.347,36.571, 36.571,36.571c 20.151,0.00, 36.571-16.384, 36.571-36.571
	S 385.719,224.256, 365.568,224.256z"  />
<glyph unicode="&#xe009;" d="M 328.997,260.864l 146.286,0.00 l0.00-73.143 l 36.389,0.00 L 511.671,349.733 C 511.671,401.518, 469.321,443.429, 416.987,443.429L 94.683,443.429
		C 42.386,443.429,0.00,401.518,0.00,349.733l0.00-179.858 c0.00-43.447, 29.915-79.909, 70.473-90.514c-6.693-19.493-21.723-40.741-50.651-62.318
		c-19.31-14.446, 71.68-31.159, 162.889,60.928l 73.143,0.00 l0.00,109.714 l 73.143,0.00 L 328.997,260.864 z M 146.139,260.864c-20.224,0.00-36.571,16.347-36.571,36.571c0.00,20.187, 16.347,36.571, 36.571,36.571c 20.187,0.00, 36.571-16.384, 36.571-36.571
		C 182.711,277.211, 166.327,260.864, 146.139,260.864z M 255.854,260.864c-20.224,0.00-36.571,16.347-36.571,36.571c0.00,20.187, 16.347,36.571, 36.571,36.571c 20.187,0.00, 36.571-16.384, 36.571-36.571
		C 292.425,277.211, 276.041,260.864, 255.854,260.864zM 511.854,151.15L 438.711,151.15L 438.711,224.293L 365.568,224.293L 365.568,151.15L 292.425,151.15L 292.425,78.007L 365.568,78.007L 365.568,4.864L 438.711,4.864L 438.711,78.007L 511.854,78.007 	z"  />
<glyph unicode="&#xe00a;" d="M 511.305,266.459c 9.874,84.955-67.803,163.511-173.422,175.433c-64.695,7.314-124.855-12.069-164.059-47.726c 8.814,0.841, 17.627,1.39, 26.368,1.39
		c 52.48,0.00, 102.802-15.579, 141.678-43.849c 41.179-29.952, 66.816-72.046, 72.229-118.528c 4.791-41.326-7.058-83.456-33.353-119.296
		c 54.199-41.033, 103.863-30.025, 92.343-21.211c-32.256,24.539-39.095,48.53-37.047,67.365C 477.513,183.808, 506.112,221.55, 511.305,266.459zM 191.744,333.385c-8.448,0.00-17.079-0.475-25.746-1.426c-100.608-10.935-174.555-83.017-165.193-160.914c 4.974-41.179, 32.219-75.739, 71.68-97.573
		c 1.938-17.262-4.571-39.278-35.255-61.806c-4.901-3.584, 1.755-7.57, 15.25-7.57c 21.029,0.00, 58.624,9.765, 94.647,45.97
		c 8.887-1.061, 18.03-1.609, 27.282-1.609c 8.375,0.00, 16.933,0.439, 25.527,1.353c 100.571,11.008, 174.555,83.017, 165.157,160.914
		C 356.571,281.893, 281.344,333.385, 191.744,333.385z"  />
<glyph unicode="&#xe00b;" d="M 329.07,242.286l 146.286,0.00 l0.00-73.143 l 7.095,0.00 c 22.272,34.853, 33.061,74.569, 28.306,115.493
		c-13.093,112.494-137.874,190.866-278.565,175.067C 91.465,443.867-11.995,339.858, 1.134,227.365c 6.949-59.465, 45.093-109.385, 100.315-140.91
		c 2.706-24.942-6.437-56.722-49.371-89.234c-17.518-13.275, 71.058-30.391, 153.746,55.442c 16.238-2.011, 33.097-2.231, 50.176-1.573L 256.00,169.143 l 73.106,0.00 L 329.106,242.286 zM 511.927,132.571L 438.784,132.571L 438.784,205.714L 365.641,205.714L 365.641,132.571L 292.498,132.571L 292.498,59.429L 365.641,59.429L 365.641-13.714L 438.784-13.714L 438.784,59.429L 511.927,59.429 	z"  />
<glyph unicode="&#xe00c;" d="M0.00,261.157L 109.714,261.157L 109.714,5.157L0.00,5.157zM 512.073,233.947c0.00,28.891-36.645,27.173-36.645,27.173L 329.143,261.12 c0.00,0.00, 4.242,19.054, 12.654,46.482c 8.448,27.465, 9.911,67.877, 2.853,85.248
		C 337.627,410.185, 324.937,442.002, 292.571,443.429C 273.591,440.43, 267.264,424.667, 267.264,424.667l0.00-63.598 c0.00,0.00-60.489-112.677-68.937-114.103C 189.842,245.504, 146.286,224.585, 146.286,224.585
		l0.00-182.857 l 19.675,0.11c0.00,0.00, 71.753-36.096, 85.797-36.096c 14.08,0.00, 177.298,0.00, 177.298,0.00s 25.307,5.815, 25.307,34.633c0.00,18.798-15.47,30.391-15.47,30.391
		s 37.998,2.853, 37.998,36.059c0.00,13.641-18.322,26.002-18.322,26.002s 35.182,7.241, 33.792,37.559c-2.816,18.798-12.69,28.891-12.69,28.891
		S 512.073,205.093, 512.073,233.947z"  />
<glyph unicode="&#xe00d;" d="M 402.359,443.429L 512.073,443.429L 512.073,187.429L 402.359,187.429zM 260.315,442.843c-14.08,0.00-177.298,0.00-177.298,0.00S 57.673,437.065, 57.673,408.21C 57.673,389.413, 73.143,377.856, 73.143,377.856S 35.145,374.93, 35.145,341.723
		c0.00-13.641, 18.286-26.002, 18.286-26.002S 18.286,308.517, 19.675,278.162c 2.816-18.798, 12.69-28.928, 12.69-28.928S0.00,243.493,0.00,214.601C0.00,185.71, 36.645,187.429, 36.645,187.429
		l 146.286,0.00 c0.00,0.00-4.242-19.054-12.654-46.482c-8.448-27.465-9.874-67.877-2.816-85.211c 6.985-17.371, 19.712-49.152, 52.041-50.578
		c 18.981,2.999, 25.307,18.798, 25.307,18.798L 244.809,87.515 c0.00,0.00, 60.489,112.64, 68.937,114.066C 322.231,203.045, 365.787,224.00, 365.787,224.00L 365.787,406.857 L 346.112,406.747
		C 346.112,406.747, 274.359,442.843, 260.315,442.843z"  />
<glyph unicode="&#xe00e;" d="M 447.927,87.515c-29.952,14.153-74.423,49.518-139.008,63.415l 1.609,0.00 C 325.339,169.509, 335.177,198.656, 350.208,237.019
		C 350.501,237.714, 350.72,238.409, 351.013,239.104c 4.096-0.731, 8.338-0.695, 11.374,1.243c 8.521,5.339, 13.714,34.487, 13.861,48.677
		c 0.219,21.285-10.386,19.20-10.386,19.20S 365.605,308.261, 365.275,308.37c 0.073,1.682, 0.146,3.401, 0.146,5.12
		c0.00,19.20, 3.877,51.749-1.207,69.815c-7.68,27.355-18.505,49.664-37.339,57.381C 302.043,450.816, 266.898,480.00, 255.488,480.00
		C 241.701,480.00, 205.275,451.474, 183.845,440.466C 165.778,431.177, 154.295,410.405, 146.651,383.122C 141.714,365.495, 145.518,333.422, 145.518,313.454
		c0.00-1.682, 0.11-3.365, 0.146-5.01C 145.152,308.297, 144.786,308.224, 144.786,308.224S 134.144,310.309, 134.40,289.024C 134.546,274.834, 139.739,245.687, 148.261,240.347
		C 151.406,238.373, 155.721,238.373, 159.963,239.141c 0.293-0.768, 0.549-1.536, 0.841-2.267c 15.141-38.437, 24.539-67.511, 39.205-85.943l 2.779,0.00
		c-64.475-14.007-108.837-49.445-138.715-63.561c-63.561-30.062-63.89-63.013-63.89-63.013l0.00-55.918 l 226.194,0.00 l 12.178,61.659L 213.541,65.646
		c0.00,0.00, 26.222,29.769, 42.386,29.769s 42.094-29.659, 42.094-29.659l-24.759-35.73l 12.069-61.659l 226.67,0.073l0.00,55.845
		C 512.037,24.357, 511.744,57.417, 447.927,87.515zM 512.11,25.088l0.00-56.869 l 0.11,0.00 l0.00,55.771 C 512.219,23.991, 512.183,24.503, 512.11,25.088zM0.00-31.854l 0.11,0.00 l0.00,56.942 C 0.037,24.503,0.00,23.991,0.00,23.991L0.00-31.854 z"  />
<glyph unicode="&#xe00f;" d="M 217.49,182.894c 97.865,7.058, 133.632,146.944, 66.926,242.761
		C 42.423,525.641, 49.152,170.715, 217.49,182.894zM 334.629,199.095c 133.778-76.873, 176.055,230.693,0.00,194.194C 404.37,302.775, 310.857,236.654, 334.629,199.095zM 435.017,166.729c-48.128-45.275, 53.65-111.25,0.00-161.865c 22.272,0.00, 44.654,0.00, 66.926,0.00
		C 532.846,54.857, 485.303,143.909, 435.017,166.729zM 100.389,182.894C 42.459,163.401, 31.707,98.267,0.00,53.431c0.00-16.165,0.00-32.366,0.00-48.567
		c 133.851,0.00, 267.703,0.00, 401.554,0.00c 37.778,61.111-33.646,134.107-66.926,178.066C 269.531,137.801, 157.513,111.031, 100.389,182.894z"  />
<glyph unicode="&#xe010;" d="M 110.629,315.026A54.674,54.199 180.00 1 1 219.977,315.026A54.674,54.199 180.00 1 1 110.629,315.026zM0.00,480.00l0.00-512.731 l 512.219,0.00 L 512.219,480.00 L0.00,480.00 z M 36.681,150.491l0.00,292.571 l 438.857,0.00 l0.00-146.286 l-109.714-146.286l-36.571,73.143l-109.714-109.714l-109.714,109.714C 109.824,223.634, 36.681,151.369, 36.681,150.491
		c0.00-132.023, 0.219-145.006, 0.256-146.286L 36.681,4.206 L 36.681,150.491 z"  />
<glyph unicode="&#xe011;" d="M0.00,461.714l0.00-475.429 l 512.00,0.00 L 512.00,461.714 L0.00,461.714 z M 73.143,22.857L 36.571,22.857 l0.00,36.571 l 36.571,0.00 L 73.143,22.857 z M 73.143,96.00L 36.571,96.00 L 36.571,132.571 l 36.571,0.00 L 73.143,96.00 z M 73.143,169.143L 36.571,169.143 L 36.571,205.714 l 36.571,0.00 L 73.143,169.143 z M 73.143,242.286L 36.571,242.286 L 36.571,278.857 l 36.571,0.00 L 73.143,242.286 z
	 M 73.143,315.429L 36.571,315.429 L 36.571,352.00 l 36.571,0.00 L 73.143,315.429 z M 73.143,388.571L 36.571,388.571 L 36.571,425.143 l 36.571,0.00 L 73.143,388.571 z M 402.286,169.143l0.00-146.286 L 109.714,22.857 L 109.714,169.143 L 109.714,205.714 l 292.571,0.00 L 402.286,169.143 z M 402.286,388.571l0.00-146.286 L 109.714,242.286 L 109.714,388.571 L 109.714,425.143 l 292.571,0.00 L 402.286,388.571 z M 475.429,22.857l-36.571,0.00 l0.00,36.571 l 36.571,0.00 L 475.429,22.857 z M 475.429,96.00l-36.571,0.00 L 438.857,132.571 l 36.571,0.00 L 475.429,96.00 z M 475.429,169.143l-36.571,0.00 L 438.857,205.714 l 36.571,0.00 L 475.429,169.143 z M 475.429,242.286
	l-36.571,0.00 L 438.857,278.857 l 36.571,0.00 L 475.429,242.286 z M 475.429,315.429l-36.571,0.00 L 438.857,352.00 l 36.571,0.00 L 475.429,315.429 z M 475.429,388.571l-36.571,0.00 L 438.857,425.143 l 36.571,0.00 L 475.429,388.571 z"  />
<glyph unicode="&#xe012;" d="M 476.014,443.136C 305.847,448.768, 183.845,371.054, 183.845,371.054l0.00-252.087 c-17.335,6.875-51.566,5.193-72.96,0.00
	c-46.117-11.118-81.81-35.803-72.96-72.009C 37.669-2.743, 101.23-0.146, 147.346,10.935c 29.806,6.034, 73.765,40.009, 72.96,72.046l0.00-35.986 L 220.306,263.022
	c0.00,0.00, 91.026,63.451, 218.88,72.046l0.00-180.041 l0.00,0.00c-17.152,6.51-51.931,5.047-72.96,0.00C 320.073,143.909, 284.379,119.186, 293.266,82.981
	c 8.887-36.206, 63.305-47.104, 109.422-35.986c 40.338,9.728, 72.704,26.295, 73.289,57.966l 0.037,0.00 C 476.014,104.923, 476.014,378.99, 476.014,443.136z"  />
<glyph unicode="&#xe013;" d="M 213.029,29.038C 205.166,26.843, 213.431,29.44, 213.029,29.038c-38.839-36.462-97.719-32.11-140.507,8.741
	c-42.423,40.558-46.373,97.061-9.179,134.327c 0.329,0.293-0.293-0.366,0.00,0.00c 0.402,0.329-0.366-0.402,0.00,0.00l 269.458,257.536l0.00,0.00l0.00,0.00l0.00,0.00
	c 23.625,22.053, 54.016,16.64, 79.982-8.155c 25.929-24.795, 32.805-55.296, 9.874-77.678l0.00,0.00l-29.952-28.635L 362.752,286.537L 183.113,114.871l0.00,0.00l0.00,0.00l0.00,0.00l0.00,0.00
	l0.00,0.00c-0.073-0.073, 0.073,0.073,0.00,0.00c-8.667-7.643-17.957-5.486-27.246,3.365C 146.615,127.086, 145.189,135.022, 153.161,143.47
	c 0.219,0.293-2.158-9.179,0.00,0.00l0.00,0.00l 186.295,179.602L 309.504,351.671L 153.161,200.704l0.00,0.00L 123.246,172.105c-0.037-0.073, 0.073,0.037,0.00,0.00
	c-0.183-0.183, 0.183,0.146,0.00,0.00c-21.321-21.065-15.653-53.906, 8.448-76.946s 61.184-25.051, 83.20-4.645l-1.865-4.242l 2.341,4.645
	c 0.037,0.073-2.341-4.681-2.341-4.645c 0.037,0.037-0.037-0.037,0.00,0.00l 209.591,200.302l 29.915,28.599l0.00,0.00l0.00,0.00
	c 36.389,35.401, 25.161,90.405-15.616,129.39c-40.997,39.168-97.134,49.006-134.071,13.714c-0.585-0.512, 0.512,0.549,0.00,0.00l0.00,0.00L 33.426,200.704l0.00,0.00
	c-0.183-0.219, 0.183,0.183,0.00,0.00c-0.366-0.402, 0.366,0.366,0.00,0.00l0.00,0.00l0.00,0.00c-50.578-50.066-42.313-131.218, 14.958-186.002
	c 57.856-55.296, 142.446-64.183, 194.597-14.336c 0.183,0.219-8.631-8.229,0.00,0.00l0.00,0.00l 232.887,221.038l-29.952,28.635L 213.029,29.038z"  />
<glyph unicode="&#xe014;" d="M 73.143,242.213L 329.143,242.213L 329.143,95.927L 73.143,95.927zM 438.857,169.07L 438.857,132.498L 512.00,132.498L 511.89,425.143L 109.714,425.07L 109.714,351.927L 146.286,351.927L 146.286,388.498L 475.429,388.498L 475.429,169.07 	zM 146.286,315.355L 109.714,315.355 L 95.269,315.355 L0.00,315.355 l 0.11-292.645L 402.286,22.784l0.00,109.714 l0.00,36.571 l0.00,36.571 l0.00,109.714 L 168.411,315.355 L 146.286,315.355 z M 365.714,59.355L 36.571,59.355 l0.00,219.429 l 329.143,0.00 L 365.714,59.355 z"  />
<glyph unicode="&#xe015;" d="M 73.143,370.286l 256.00,0.00 l0.00-146.286 L 73.143,224.00 L 73.143,370.286 z M 402.286,443.429l0.00-146.286 l-36.571,0.00 L 365.714,406.857 L 36.571,406.857 l0.00-219.429 l 219.429,0.00 l0.00-36.571 l 36.571,0.00 L 292.571,187.429 l 73.143,0.00 L 365.714,260.571 l 36.571,0.00 l0.00,0.00l0.00-109.714 L 0.11,150.784L0.00,443.429l 109.714,0.00 l 36.571,0.00 L 402.286,443.429 zM 365.714,260.571l 73.143,0.00 l0.00-219.429 l-73.143,0.00 L 365.714,260.571 zM 292.571,187.429l 219.429,0.00 l0.00-73.143 L 292.571,114.286 L 292.571,187.429 z"  />
<glyph unicode="&#xe016;" d="M 475.429,425.143L 36.571,425.143 C 16.384,425.143,0.00,408.759,0.00,388.571l0.00-329.143 c0.00-20.224, 16.384-36.571, 36.571-36.571l 438.857,0.00 c 20.187,0.00, 36.571,16.347, 36.571,36.571L 512.00,388.571
	C 512.00,408.759, 495.616,425.143, 475.429,425.143z M 426.752,216.905c-10.825-5.339-23.881-0.768-29.111,10.203l-20.48,42.606L 330.789,111.433
	C 328.192,102.51, 320.366,96.183, 311.15,95.634c-0.402,0.00-0.768,0.00-1.17,0.00c-8.741,0.00-16.64,5.23-20.078,13.422L 241.189,225.499L 207.579,138.533
	C 204.69,131.072, 198.034,125.733, 190.171,124.709C 182.309,123.648, 174.482,127.013, 169.801,133.449L 134.437,182.016L 112.238,154.258l0.00,0.00
	C 104.667,144.786, 90.953,143.323, 81.591,151.04c-9.326,7.68-10.752,21.614-3.182,31.086l 39.899,49.883c 4.242,5.339, 10.642,8.338, 17.408,8.155
	c 6.766-0.146, 12.983-3.438, 17.006-8.96L 181.394,191.854l 38.693,100.133c 3.218,8.375, 11.081,13.897, 19.968,14.043
	c 8.887,0.11, 16.896-5.193, 20.37-13.458l 45.897-109.678l 45.056,153.856c 2.56,8.741, 10.094,14.958, 19.09,15.726
	c 8.96,0.731, 17.408-4.133, 21.358-12.361l 44.946-93.696C 442.039,235.447, 437.541,222.208, 426.752,216.905z"  />
<glyph unicode="&#xe017;" d="M 182.857,205.385c-25.819-23.406-61.659-82.359-121.563-155.099L 146.286-14.08c 28.891,37.632, 71.57,74.533, 109.714,146.322c 40.777-69.23, 79.835-106.094, 109.751-146.322
	l 86.601,64.366c-57.344,69.193-91.721,128.11-123.209,155.099C 392.155,212.517, 446.391,215.918, 512.00,237.275l-36.498,114.395
	c-68.681-22.382-129.682-46.702-182.894-73.143C 302.921,354.341, 309.906,411.319, 311.442,461.714L 199.168,461.714 C 199.68,427.118, 209.664,370.651, 219.465,278.528
	C 182.309,299.41, 118.674,323.182, 36.571,351.707l-36.571-109.714C 59.904,226.194, 123.319,207.25, 189.879,194.56L 182.857,205.385z"  />
<glyph unicode="&#xe018;" d="M 255.89,480.00C 114.578,480.00,0.00,365.422,0.00,224.11s 114.578-255.89, 255.89-255.89s 255.89,114.578, 255.89,255.89S 397.202,480.00, 255.89,480.00z M 308.992,211.346
	L 359.863,160.512c 7.168-7.168, 7.168-18.871,0.00-26.002L 345.381,119.991c-7.131-7.131-18.871-7.131-26.002,0.00L 268.544,170.862
	c-7.131,7.131-18.871,7.131-26.002,0.00L 191.671,119.991c-7.131-7.131-18.834-7.131-26.002,0.00L 151.223,134.51c-7.131,7.131-7.131,18.834,0.00,26.002
	l 50.871,50.871c 7.131,7.131, 7.131,18.834,0.00,25.966L 151.223,288.183c-7.168,7.131-7.168,18.871,0.00,26.002L 165.669,328.667
	c 7.131,7.131, 18.871,7.131, 26.002,0.00l 50.871-50.871c 7.131-7.131, 18.871-7.131, 26.002,0.00l 50.871,50.871c 7.131,7.131, 18.871,7.131, 26.002,0.00
	l 14.482-14.482c 7.131-7.131, 7.131-18.871,0.00-26.002L 308.992,237.312C 301.861,230.181, 301.861,218.514, 308.992,211.346z"  />
<glyph unicode="&#xe019;" d="M 328.229,296.521L 328.229,480.00 L 183.479,480.00 l0.00-183.479 L0.00,296.521 l0.00-144.75 l 183.479,0.00 l0.00-183.515 l 144.75,0.00 L 328.229,151.771 l 183.515,0.00 L 511.744,296.521 L 328.229,296.521 z"  />
<glyph unicode="&#xe01a;" d="M 328.265,296.521L 328.265,297.143 L 183.479,297.143 l0.00-0.622 L0.00,296.521 l0.00-144.75 l 183.479,0.00 l0.00-0.658 l 144.75,0.00 L 328.229,151.771 l 183.479,0.00 L 511.707,296.521 L 328.265,296.521 z"  />
<glyph unicode="&#xe01b;" d="M 512.00,424.997L 512.00,424.997c-7.973,7.68-292.571-256.00-292.571-256.00c-7.936-7.753-43.483-40.887-73.143-36.571c0.00,0.00-41.911,48.603-146.286,73.143c0.00,0.00, 0.146,1.097,0.00,0.00l 135.79-168.594
	c 7.936-7.68, 23.625-14.043, 34.853-14.043l 23.808,0.00 c 11.227,0.00, 26.917,6.327, 34.853,14.043C 229.303,36.974, 283.392,144.128, 512.00,424.997z"  />
<glyph unicode="&#xe01c;" d="M 464.603,351.744c 14.336,14.299, 14.336,37.669,0.00,51.968l-28.965,29.001c-14.336,14.299-37.669,14.299-51.968,0.00L 281.929,331.008
	c-14.299-14.299-37.669-14.299-51.968,0.00L 128.256,432.713c-14.336,14.299-37.669,14.299-52.005,0.00L 47.287,403.749c-14.299-14.336-14.299-37.705,0.00-52.005
	l 101.705-101.705c 14.299-14.299, 14.299-37.669,0.00-52.005L 47.287,96.366c-14.299-14.299-14.299-37.669,0.00-52.005l 29.001-28.965
	c 14.299-14.299, 37.632-14.299, 51.968-0.037l 101.705,101.705c 14.299,14.336, 37.669,14.336, 51.968,0.00l 101.705-101.705c 14.336-14.263, 37.669-14.263, 52.005,0.00
	l 28.965,29.001c 14.336,14.336, 14.336,37.705,0.00,52.005L 362.898,198.034c-14.299,14.336-14.299,37.705,0.00,52.005L 464.603,351.744z"  />
<glyph unicode="&#xe01d;" d="M 499.456,82.03l-189.44,339.968C 280.539,474.917, 232.265,474.953, 202.715,422.071l-190.062-340.078c-29.55-52.882-5.595-96.11, 53.175-96.11l 380.306,0.00
	C 504.978-14.117, 528.933,29.147, 499.456,82.03z M 258.121,45.751c-18.213,0.00-32.695,15.031-32.695,34.011c0.00,18.944, 14.482,34.011, 32.695,34.011
	s 32.731-15.067, 32.731-34.011C 290.816,60.782, 276.334,45.751, 258.121,45.751z M 281.307,135.278L 234.935,135.278 L 219.429,315.209l 73.143,0.00 L 281.307,135.278z"  />
<glyph unicode="&#xe01e;" d="M 256.00,297.143c 40.375,0.00, 73.143-32.768, 73.143-73.143S 296.375,150.857, 256.00,150.857S 182.857,183.625, 182.857,224.00S 215.625,297.143, 256.00,297.143z"  />
<glyph unicode="&#xe01f;" d="M 475.429-32.00L 36.571-32.00 c-20.187,0.00-36.571,16.384-36.571,36.571L0.00,388.571 c0.00,20.187, 16.384,36.571, 36.571,36.571l 36.571,0.00 L 73.143,406.857 c0.00-30.318, 24.539-54.857, 54.857-54.857S 182.857,376.539, 182.857,406.857L 182.857,425.143 l 146.286,0.00 L 329.143,406.857
			c0.00-30.318, 24.576-54.857, 54.857-54.857S 438.857,376.539, 438.857,406.857L 438.857,425.143 l 36.571,0.00 c 20.187,0.00, 36.571-16.384, 36.571-36.571L 512.00,4.571 C 512.00-15.616, 495.616-32.00, 475.429-32.00z M 475.429,297.143L 36.571,297.143 l0.00-292.571 l 438.857,0.00 L 475.429,297.143 z M 202.423,154.002
			c 3.584,5.705, 5.413,11.776, 5.413,18.139c0.00,14.153-7.607,21.211-22.821,21.211c-13.239,0.00-25.856-5.266-37.925-15.762L 147.09,207.397
			C 160.439,216.064, 175.506,220.343, 192.293,220.343c 15.726,0.00, 27.977-3.95, 36.827-11.813c 8.814-7.899, 13.239-18.578, 13.239-32.00
			c0.00-17.883-10.752-36.462-32.256-55.625L 178.469,92.855l0.00-0.622 l 62.354,0.00 l0.00-28.087 L 139.666,64.146 l0.00,26.331 l 44.032,42.13C 192.585,141.093, 198.802,148.224, 202.423,154.002z
			 M 326.181,92.965c 4.827,3.73, 7.205,8.887, 7.205,15.543c0.00,6.875-2.962,12.142-8.923,15.872S 310.272,129.938, 299.849,129.938L 286.025,129.938 L 286.025,155.867 L 298.789,155.867
			c 20.005,0.00, 29.989,6.656, 29.989,19.931c0.00,12.544-7.68,18.761-23.04,18.761c-10.24,0.00-20.261-3.328-29.989-9.947L 275.749,212.224
			C 286.537,217.673, 299.118,220.343, 313.454,220.343C 329.143,220.343, 341.394,216.832, 350.135,209.737c 8.777-7.058, 13.129-16.238, 13.129-27.538
			c0.00-20.078-10.167-32.658-30.537-37.705l0.00-0.512 C 343.625,142.629, 352.183,138.679, 358.473,132.133s 9.435-14.519, 9.435-24.027
			c0.00-14.373-5.266-25.71-15.762-34.085s-25.015-12.544-43.483-12.544c-15.872,0.00-28.745,2.56-38.693,7.717l0.00,29.477
			c 10.277-7.497, 22.309-11.264, 36.023-11.264C 314.624,87.406, 321.317,89.234, 326.181,92.965z M 383.415,370.286C 363.52,370.286, 347.429,386.377, 347.429,406.272L 347.429,444.014
			C 347.429,463.909, 363.52,480.00, 383.415,480.00s 35.986-16.091, 35.986-35.986l0.00-37.705 C 419.438,386.377, 403.31,370.286, 383.415,370.286z M 127.415,370.286C 107.52,370.286, 91.429,386.377, 91.429,406.272
			L 91.429,444.014 C 91.429,463.909, 107.52,480.00, 127.415,480.00s 35.986-16.091, 35.986-35.986l0.00-37.705 C 163.438,386.377, 147.31,370.286, 127.415,370.286z"  />
<glyph unicode="&#xe020;" d="M 367.543,431.909L 365.641,406.857l0.00-241.701 l 0.402,32.658c 7.607,11.374, 17.591,1.975, 22.053-6.473c 1.426-2.743, 2.085-5.742, 2.085-8.704
		c0.00-6.034-19.931-22.053-24.503-17.481L 365.678-32.00 l 146.213,57.015L 511.927,480.00L 367.543,431.909z M 469.504,240.018c-9.655-8.046-18.798-16.165-27.611-24.101
		c-6.875-6.107-17.006-5.12-22.638,2.377c-5.669,7.424-4.681,18.505, 2.121,24.613c 9.143,8.229, 18.615,16.64, 28.599,24.942
		c 7.058,5.851, 17.152,4.352, 22.565-3.328c 2.267-3.109, 3.328-6.875, 3.328-10.569C 475.867,248.686, 473.637,243.493, 469.504,240.018zM 182.784,4.571l 146.286-36.571L 329.07,443.429 l-146.286,36.571L 182.784,4.571 z M 239.47,185.015C 242.907,193.938, 252.306,198.107, 260.535,194.377C 265.326,192.183, 269.97,190.318, 274.469,188.709
		C 281.234,186.258, 285.513,179.383, 285.513,172.069c0.00-1.829-0.256-3.694-0.805-5.522C 281.893,157.367, 272.786,152.393, 264.302,155.465
		C 259.072,157.367, 253.696,159.525, 248.101,162.085C 239.909,165.815, 236.032,176.055, 239.47,185.015zM 133.815,289.061c 6.766,6.034, 6.802,15.177, 12.178,8.265L 146.213,480.00L0.00,423.022l0.00-454.875 L 146.213,4.571l-0.512,20.443l 0.146,141.787
		C 145.262,165.961, 144.421,165.449, 142.592,166.107C 133.559,169.362, 122.661,176.128, 110.226,186.295c-7.168,5.851-8.594,16.786-3.255,24.576
		C 112.274,218.624, 122.368,220.16, 129.499,214.382C 138.569,207.031, 140.69,190.391, 145.883,187.794l 0.073,72.521C 137.911,253.001, 137.838,247.04, 130.377,239.689
		C 123.794,233.143, 113.591,233.691, 107.593,240.859C 101.669,247.991, 102.144,259.035, 108.727,265.618C 116.699,273.445, 124.965,281.234, 133.815,289.061z M 45.019,284.453
		C 47.177,293.815, 55.918,299.52, 64.585,297.143C 72.741,294.949, 77.897,286.171, 76.544,277.358c 0.329-1.17, 2.011-6.619, 9.838-17.591
		c 2.267-3.182, 3.401-6.949, 3.401-10.679c0.00-5.23-2.158-10.423-6.254-13.861C 76.507,229.303, 66.341,230.656, 60.891,238.299
		C 47.104,257.646, 42.13,272.165, 45.019,284.453z M 85.797,191.232C 78.848,183.113, 71.753,174.592, 64.329,165.522C 58.368,158.318, 48.201,157.733, 41.582,164.169
		c-6.656,6.473-7.168,17.554-1.28,24.759C 47.872,198.107, 55.113,206.738, 62.171,215.003C 68.206,222.135, 78.409,222.537, 84.919,215.954
		C 88.393,212.553, 90.112,207.835, 90.112,203.154C 90.112,198.839, 88.649,194.597, 85.797,191.232z"  />
<glyph unicode="&#xe021;" d="M 255.634,480.00C 154.843,480.00, 73.143,402.359, 73.143,306.615c0.00-2.048, 0.073-4.133, 0.146-6.254C 73.984,282.149, 77.605,264.667, 83.749,248.32
	c 38.912-121.60, 171.886-280.174, 171.886-280.174s 132.974,158.574, 171.886,280.137C 433.701,264.631, 437.321,282.149, 437.979,300.361C 438.089,302.482, 438.126,304.567, 438.126,306.615
	C 438.126,402.359, 356.425,480.00, 255.634,480.00z M 255.634,224.037c-49.371,0.00-89.381,35.694-89.381,82.578S 206.299,391.534, 255.634,391.534c 49.408,0.00, 89.381-38.034, 89.381-84.919
	S 305.042,224.037, 255.634,224.037z"  />
<glyph unicode="&#xe022;" d="M 182.857,480.00l0.00-512.00 l 146.286,0.00 L 329.143,480.00 L 182.857,480.00 z M 292.571,4.571L 219.429,4.571 L 219.429,150.857 l 73.143,0.00 L 292.571,4.571 z M 292.571,187.429L 219.429,187.429 L 219.429,443.429 l 73.143,0.00 L 292.571,187.429 zM0.00,480.00l0.00-512.00 l 146.286,0.00 L 146.286,480.00 L0.00,480.00 z M 109.714,4.571L 36.571,4.571 L 36.571,333.714 l 73.143,0.00 L 109.714,4.571 z M 109.714,370.286L 36.571,370.286 L 36.571,443.429 l 73.143,0.00 L 109.714,370.286 zM 365.714,480.00l0.00-512.00 l 146.286,0.00 L 512.00,480.00 L 365.714,480.00 z M 475.429,4.571l-73.143,0.00 L 402.286,260.571 l 73.143,0.00 L 475.429,4.571 z M 475.429,297.143l-73.143,0.00 L 402.286,443.429 l 73.143,0.00 L 475.429,297.143 zM 402.286,260.571l 73.143,0.00 l0.00-256.00 l-73.143,0.00 L 402.286,260.571 zM 36.571,333.714l 73.143,0.00 l0.00-329.143 L 36.571,4.571 L 36.571,333.714 zM 219.429,150.857l 73.143,0.00 l0.00-146.286 L 219.429,4.571 L 219.429,150.857 z"  />
<glyph unicode="&#xe023;" d="M 384.731,443.429C 319.488,443.429, 256.073,366.629, 256.073,366.629S 192.658,443.429, 127.451,443.429C 62.245,443.429,0.00,411.429,0.00,317.111c0.00-66.926, 91.502-183.479, 91.502-183.479l 164.571-130.231
	l 164.571,130.231c0.00,0.00, 91.502,116.553, 91.502,183.479C 512.146,411.429, 449.938,443.429, 384.731,443.429z"  />
<glyph unicode="&#xe024;" d="M 436.663,431.433c-41.838,19.419-91.977,14.373-130.45-8.85L 264.265,331.008l 83.09-72.338L 256.00,5.157L 292.535,224.366L 185.783,322.45l 31.305,92.233
	C 177.481,444.343, 121.527,452.864, 75.264,431.433C 5.815,399.25-27.429,316.965, 27.465,219.794C 66.414,150.711, 135.497,98.597, 256.00,5.339
	c 120.503,93.294, 189.55,145.408, 228.571,214.491C 539.392,316.965, 506.149,399.25, 436.663,431.433z"  />
<glyph unicode="&#xe025;" d="M 256.00,358.144l 29.989-92.306l 7.168-22.089l 23.259,0.00 l 97.061,0.00 L 334.958,186.661L 316.197,172.983L 323.365,150.857l 29.989-92.306L 274.834,115.602L 256.00,129.28L 237.202,115.602
	l-78.555-57.088L 188.635,150.857l 7.205,22.126L 177.006,186.661L 98.487,243.712l 97.097,0.00 l 23.259,0.00 L 226.011,265.838L 256.00,358.144 M 256.00,461.714L 195.584,275.712L0.00,275.712 l 158.208-114.981
	l-60.416-185.966L 256.00,89.71l 158.208-114.944L 353.792,160.768L 512.00,275.712L 316.416,275.712 L 256.00,461.714L 256.00,461.714z"  />
<glyph unicode="&#xe026;" d="M 365.714,151.077l 146.286,146.286L 329.143,297.362 L 256.00,480.00L 182.857,297.326L0.00,297.326 l 146.286-146.286l-73.143-182.857l 182.857,109.714l 182.857-109.714L 365.714,151.077z"  />
<glyph unicode="&#xe027;" d="M 475.502,297.143l-36.571,0.00 l-146.286,0.00 l-36.571,0.00 L 256.073,443.429 L0.00,224.00l 256.073-219.429L 256.073,150.857 l 36.571,0.00 l 146.286,0.00 l 36.571,0.00 c 20.187,0.00, 36.571,16.347, 36.571,36.571L 512.073,260.571 C 512.073,280.759, 495.689,297.143, 475.502,297.143z"  />
<glyph unicode="&#xe029;" d="M 329.143,224.00L 329.143,260.571 L 329.143,406.857 L 329.143,443.429 c0.00,20.187-16.347,36.571-36.571,36.571L 219.429,480.00 C 199.241,480.00, 182.857,463.616, 182.857,443.429l0.00-36.571 l0.00-146.286 l0.00-36.571 L 36.571,224.00 l 219.429-256.073L 475.429,224.00L 329.143,224.00 z"  />
<glyph unicode="&#xe02a;" d="M 256.00,480.00L 36.571,223.927l 146.286,0.00 l0.00-36.571 l0.00-146.286 l0.00-36.571 c0.00-20.187, 16.384-36.571, 36.571-36.571l 73.143,0.00 c 20.224,0.00, 36.571,16.384, 36.571,36.571l0.00,36.571 l0.00,146.286 l0.00,36.571 l 146.286,0.00 L 256.00,480.00z"  />
<glyph unicode="&#xe02b;" d="M 402.066,480.00l0.00-255.817 l0.00-255.817 L 109.714,224.183L 402.066,480.00z"  />
<glyph unicode="&#xe02c;" d="M 109.714-31.634L 109.714,224.183 L 109.714,480.00 l 292.352-255.817L 109.714-31.634z"  />
<glyph unicode="&#xe02d;" d="M 512.00,77.714L 256.00,77.714 L0.00,77.714 l 256.00,292.571L 512.00,77.714z"  />
<glyph unicode="&#xe02e;" d="M0.00,370.286l 256.00,0.00 l 256.00,0.00 L 256.00,77.714L0.00,370.286z"  />
<glyph unicode="&#xe02f;" d="M 511.269,351.781L 353.061,204.069l-97.243-70.949l-96.549,70.40L 0.402,351.781c-0.951-2.816, 0.037-25.783, 0.037-28.855l0.00-233.655
		c0.00-1.792, 0.219-3.438, 0.585-5.12c 2.487-13.678, 14.994-24.21, 30.062-24.21l 449.28,0.00 c 13.531,0.00, 24.942,8.521, 28.965,20.187l 0.183-0.146
		c 1.024,2.926, 1.719,6.034, 1.719,9.289L 511.232,322.926 C 511.232,325.998, 512.256,348.965, 511.269,351.781zM 212.041,233.472l 43.776-27.465l 43.922,27.538l 22.162,17.225l 152.869,137.435c-2.743,0.768, 2.999,0.00,0.00,0.00L 36.901,388.206 c-2.999,0.00, 2.743,0.768,0.00,0.00
		l 152.942-137.545L 212.041,233.472z"  />
<glyph unicode="&#xe030;" d="M 512.00,480.00c0.00,0.585-2.56-36.571-146.286-36.571C 256.146,443.429, 256.037,480.00, 254.866,480.00C 252.855,480.00, 254.318,443.429, 146.286,443.429
	C 1.499,443.429,0.00,480.585,0.00,480.00c0.00-35.438,0.00-36.571,0.00-36.571s 1.061-255.854, 73.143-329.143c 100.206-101.888, 182.857-146.286, 182.857-146.286s 118.418,80.603, 182.857,146.286c 72.265,73.618, 73.143,329.143, 73.143,329.143S 512.366,446.062, 512.00,480.00z
	 M 402.286,297.143L 256.00,150.857L 219.429,150.857 c 3.95-3.84-5.595,0.00,0.00,0.00L 146.286,224.00C 142.336,220.16, 142.336,227.84, 146.286,224.00l 36.571,36.571C 178.907,264.411, 186.807,264.411, 182.857,260.571l 36.571-36.571
	c 0.549,0.731, 36.059,0.731, 36.571,0.00l 109.714,109.714c-3.986,3.84, 3.95,3.84,0.00,0.00L 402.286,297.143C 406.235,300.983, 406.272,293.303, 402.286,297.143z"  />
<glyph unicode="&#xe031;" d="M 512.00,224.00l-109.714,109.714l0.00-73.143 L 292.571,260.571 L 292.571,370.286 l 73.143,0.00 L 256.00,480.00L 146.286,370.286l 73.143,0.00 l0.00-109.714 L 109.714,260.571 L 109.714,333.714 L0.00,224.00l 109.714-109.714L 109.714,187.429 l 109.714,0.00 l0.00-109.714 L 146.286,77.714 l 109.714-109.714l 109.714,109.714L 292.571,77.714 L 292.571,187.429 l 109.714,0.00 l0.00-73.143 L 512.00,224.00z"  />
<glyph unicode="&#xe032;" d="M 54.857,260.571L 219.429,260.571 l 18.286,0.00 l 36.571,0.00 L 292.571,260.571 l 164.571,0.00 C 467.20,260.571, 475.429,268.763, 475.429,278.857S 467.20,297.143, 457.143,297.143L 292.571,297.143 L 292.571,333.714 L 292.571,370.286 l 109.714,0.00 L 256.00,480.00L 109.714,370.286l 109.714,0.00 l0.00-36.571 l0.00-36.571 L 54.857,297.143 C 44.763,297.143, 36.571,288.951, 36.571,278.857
		S 44.763,260.571, 54.857,260.571zM 457.143,187.429L 292.571,187.429 L 274.286,187.429 l-36.571,0.00 L 219.429,187.429 L 54.857,187.429 C 44.763,187.429, 36.571,179.20, 36.571,169.143S 44.763,150.857, 54.857,150.857L 219.429,150.857 l0.00-36.571 l0.00-36.571 L 109.714,77.714 l 146.286-109.714l 146.286,109.714L 292.571,77.714 l0.00,36.571 L 292.571,150.857 l 164.571,0.00 C 467.20,150.857, 475.429,159.086, 475.429,169.143
		S 467.20,187.429, 457.143,187.429z"  />
<glyph unicode="&#xe033;" d="M 255.89,480.00C 114.578,480.00,0.00,365.422,0.00,224.11s 114.578-255.89, 255.89-255.89s 255.89,114.578, 255.89,255.89S 397.202,480.00, 255.89,480.00z M 253.294,394.971
	c 20.553,0.00, 36.462-15.433, 36.462-35.95c0.00-19.529-15.945-35.95-37.01-35.95c-19.017,0.00-35.95,16.421-35.95,35.95
	C 216.795,379.538, 233.765,394.971, 253.294,394.971z M 329.106,41.326l-146.286,0.00 l0.00,36.571 c 29.769,3.584, 36.571,0.11, 36.571,36.571l0.00,109.714 c0.00,33.902-11.922,32.475-36.571,36.571l0.00,36.571
	c 30.83,3.584, 78.19-7.753, 106.935,0.475l0.00-181.797 c0.00-35.438, 8.521-34.011, 39.351-38.107L 329.106,41.326 z"  />
<glyph unicode="&#xe034;" d="M0.00,480.00l0.00-128.00 l 512.00,0.00 L 512.00,480.00 L0.00,480.00 z M0.00,160.00l 512.00,0.00 l0.00,128.00 L0.00,288.00 L0.00,160.00 z M0.00-32.00l 512.00,0.00 l0.00,128.00 L0.00,96.00 L0.00-32.00 z"  />
<glyph unicode="&#xe035;" d="M 476.672,372.809l-104.814,0.00 c0.00,0.00-1.097,2.085-1.097,26.478C 370.761,423.68, 351.013,443.429, 326.619,443.429L 185.381,443.429 C 160.987,443.429, 141.239,423.68, 141.239,399.287
	c0.00-24.393, 1.097-26.478, 1.097-26.478L 35.291,372.809 C 15.835,372.809,0.00,357.01,0.00,337.518l0.00-282.478 c0.00-19.493, 15.835-35.328, 35.291-35.328l 441.381,0.00
	c 19.493,0.00, 35.328,15.835, 35.328,35.328L 512.00,337.518 C 512.00,357.01, 496.165,372.809, 476.672,372.809z M 256.805,90.807c-58.514,0.00-105.947,47.397-105.947,105.911
	c0.00,58.478, 47.433,105.911, 105.947,105.911c 58.478,0.00, 105.911-47.397, 105.911-105.911C 362.715,138.203, 315.282,90.807, 256.805,90.807z"  />
<glyph unicode="&#xe036;" d="M 253.659,406.857C 97.536,406.857,0.00,234.533,0.00,234.533s 96.622-172.325, 253.659-172.325C 400.494,62.208, 512.00,234.533, 512.00,234.533S 401.445,406.857, 253.659,406.857z M 255.049,156.928
	c-42.789,0.00-77.422,34.633-77.422,77.422c0.00,42.752, 34.633,77.422, 77.422,77.422c 42.752,0.00, 77.385-34.67, 77.385-77.422
	C 332.434,191.561, 297.801,156.928, 255.049,156.928z M 255.488,273.079c-21.285,0.00-38.546-17.298-38.546-38.546c0.00-21.285, 17.262-38.546, 38.546-38.546
	S 294.034,213.248, 294.034,234.533C 294.034,255.781, 276.773,273.079, 255.488,273.079z"  />
<glyph unicode="&#xe037;" d="M 402.286,480.00L 109.714,480.00 C 70.583,480.00, 36.571,450.633, 36.571,414.427l0.00-380.855 C 36.571-2.633, 70.583-32.00, 109.714-32.00l 292.571,0.00
	c 39.131,0.00, 73.143,29.367, 73.143,65.573L 475.429,414.427 C 475.429,450.633, 441.417,480.00, 402.286,480.00z M 151.625,41.362C 128.475,41.362, 109.714,59.977, 109.714,82.981
	C 109.714,105.911, 128.475,124.526, 151.625,124.526s 41.947-18.615, 41.947-41.582C 193.609,59.977, 174.811,41.362, 151.625,41.362z M 246.528,41.289
	c-0.366,36.279-14.519,70.29-40.046,95.927C 180.626,163.182, 146.286,177.445, 109.714,177.445L 109.714,233.765 c 106.021,0.00, 192.329-86.235, 193.097-192.475L 246.528,41.289 z M 346.002,41.289
	c-0.805,130.267-106.423,235.995-236.178,235.995l0.00,56.32 c 160.805,0.00, 291.694-131.035, 292.498-292.315L 346.002,41.289 z"  />
<glyph unicode="&#xe038;" d="M 417.28,443.429L 94.72,443.429 C 42.423,443.429,0.00,401.335,0.00,349.403l0.00-180.443 c0.00-43.557, 29.952-80.128, 70.473-90.734c-6.693-19.566-21.687-40.887-50.651-62.537
	c-19.346-14.482, 71.717-31.232, 162.962,61.111l 219.538,0.00 c 52.334,0.00, 109.641,40.302, 109.641,92.197L 511.963,349.403 C 512.00,401.335, 469.614,443.429, 417.28,443.429z M 141.093,150.309
	c-17.408,0.00-31.488,14.043-31.488,31.305s 14.08,31.305, 31.488,31.305s 31.488-14.007, 31.488-31.305S 158.464,150.309, 141.093,150.309z M 212.297,150.235
	C 212.005,177.554, 201.362,203.154, 182.199,222.464C 162.853,241.993, 137.07,252.745, 109.641,252.745L 109.641,295.131 c 79.579,0.00, 144.311-64.878, 144.896-144.859L 212.297,150.272 z
	 M 286.939,150.235C 286.354,248.283, 207.067,327.863, 109.714,327.863L 109.714,370.213 c 120.649,0.00, 218.88-98.56, 219.502-219.977L 286.939,150.235 z"  />
<glyph unicode="&#xe028;" d="M 512.073,224.00L 256.00,443.429l0.00-146.286 L 219.429,297.143 L 73.143,297.143 L 36.571,297.143 C 16.384,297.143,0.00,280.759,0.00,260.571l0.00-73.143 c0.00-20.224, 16.384-36.571, 36.571-36.571l 36.571,0.00 l 146.286,0.00 l 36.571,0.00 l0.00-146.286 L 512.073,224.00z"  />
<glyph unicode="&#xe039;" d="M 444.957,111.111 m0.00,0.00,l-36.087,0.00l0.00,34.889l 18.044,0.00l0.00,34.889l-342.826,0.00l0.00-34.889l 18.043,0.00l0.00-34.889l-36.087,0.00c-9.96,0.00 -18.043,7.815 -18.043,17.444l0.00,174.444c0.00,16.869 72.174,34.889 198.478,34.889c 6.694,0.00 12.612,0.00 18.043,0.00c 125.186,0.00 198.478-17.619 198.478-34.889l0.00-174.444c0.00-9.629 -8.065-17.444 -18.043-17.444zm-45.109,174.444c-14.94,0.00 -27.065-11.723 -27.065-26.167s 12.125-26.167 27.065-26.167s 27.065,11.723 27.065,26.167s-12.125,26.167 -27.065,26.167zm-279.674,157.00c0.00,9.647 8.083,17.444 18.043,17.444l 234.565,0.00c 9.978,0.00 18.043-7.798 18.043-17.444l0.00-87.222l-270.652,0.00l0.00,87.222zm 270.652-436.111c0.00-9.629 -8.065-17.444 -18.043-17.444l-234.565,0.00c-9.96,0.00 -18.043,7.815 -18.043,17.444l0.00,157.00l 270.652,0.00l0.00-157.00zm-36.087,139.556l-198.478,0.00l0.00-17.444l 198.478,0.00l0.00,17.444zm0.00-34.889l-198.478,0.00l0.00-17.444l 198.478,0.00l0.00,17.444zm0.00-34.889l-198.478,0.00l0.00-17.444l 198.478,0.00l0.00,17.444zm0.00-34.889l-198.478,0.00l0.00-17.444l 198.478,0.00l0.00,17.444z"  />
<glyph unicode="&#x20;" horiz-adv-x="256" />
<glyph class="hidden" unicode="&#xf000;" d="M0,480L 512 -32L0 -32 z" horiz-adv-x="0" />
</font>
</defs>
</svg>
